<?xml version="1.0" encoding="UTF-8"?>
<svg id="Ebene_1" data-name="Ebene 1" xmlns="http://www.w3.org/2000/svg" version="1.1" viewBox="0 0 611 154">
  <defs>
    <style>
      .cls-1 {
        fill: #1e8cc8;
      }

      .cls-1, .cls-2, .cls-3 {
        stroke-width: 0px;
      }

      .cls-2 {
        fill: #003c78;
      }

      .cls-3 {
        fill: #fff;
      }

      .cls-4 {
        fill: none;
        font-family: BrandonGrotesque-Bold, 'Brandon Grotesque';
        font-size: 42.8px;
        font-weight: 700;
        letter-spacing: 0em;
      }
    </style>
  </defs>
  <circle class="cls-1" cx="75" cy="59.6" r="19.2" transform="translate(-17.1 33.2) rotate(-22.5)"/>
  <path class="cls-3" d="M86.8,110.5h-28.6c-6.3,0-10.1-3.8-10.1-8.6s7.2-10.3,8.6-10.3,7.6,3.4,18.3,3.4c21.9,0,35.8-16.4,35.8-34.3s-9-22.5-9-22.5l11.6-3.2c1.5-.2,2.3-2.1,2.3-3.6v-5.3c0-2.2-1.8-4-4-4h-36.8c-21.5,0-36.2,17.2-36.2,36.8s6.5,20.4,6.5,20.4c0,0-14.4,7.8-14.9,24-.6,18.6,15.5,25,34.3,24.8,6.1-.4,12.4-.4,18.5-.4,13.7,0,15.8,8.6,15.8,12s-1.2,6.1-3.2,8.6c-2.6,3.1-6.5,4.9-10.5,5.3h0c2.4-.2,4.7-.6,7-1.1.3,0,.6-.1.8-.2.9-.2,1.8-.4,2.8-.6.2,0,.5-.1.7-.2,1.1-.3,2.3-.6,3.4-1,0,0,.1,0,.2,0,1-.3,2.1-.7,3.1-1,.3,0,.5-.2.8-.3.9-.3,1.7-.7,2.6-1,.2,0,.4-.2.6-.3,1.1-.5,2.1-.9,3.1-1.4.1,0,.2-.1.3-.2.9-.4,1.8-.9,2.7-1.4.2-.1.5-.3.7-.4.8-.5,1.7-.9,2.5-1.4.2,0,.3-.2.5-.3.9-.6,1.8-1.1,2.7-1.7,0-.8.1-1.6.1-2.4,0-18.3-14.7-28.2-33-28.2ZM75,40.4c10.6,0,19.2,8.6,19.2,19.2s-8.6,19.2-19.2,19.2-19.2-8.6-19.2-19.2,8.6-19.2,19.2-19.2Z"/>
  <text class="cls-4" transform="translate(310.7 60.8) scale(.6)"><tspan x="0" y="0"> </tspan></text>
  <g>
    <path class="cls-1" d="M197.4,44.1c3.9,0,7.7,1.5,10.6,4.1.3.3.4.9,0,1.2l-2.7,2.8c-.3.3-.7.3-1.1,0-1.9-1.7-4.2-2.5-6.6-2.5-5.5,0-9.8,4.7-9.8,10.1s4.3,10,9.8,10,4.3-.7,5.2-1.1v-3.7h-3.5c-.5,0-.8-.3-.8-.8v-3.4c0-.5.3-.8.8-.8h8.4c.4,0,.8.4.8.8v11.2c0,.3-.2.6-.3.7,0,0-4.5,2.8-10.8,2.8s-15.7-6.9-15.7-15.6,7-15.7,15.7-15.7Z"/>
    <path class="cls-1" d="M217.6,45.4c0-.4.3-.8.8-.8h17.7c.5,0,.8.4.8.8v3.6c0,.4-.3.8-.8.8h-12.9v7.2h10.8c.4,0,.8.4.8.8v3.6c0,.5-.4.8-.8.8h-10.8v7.6h12.9c.5,0,.8.4.8.8v3.6c0,.4-.3.8-.8.8h-17.7c-.5,0-.8-.4-.8-.8v-28.9Z"/>
    <path class="cls-1" d="M244.1,70.8l1.6-2.7c.3-.6,1.1-.6,1.5-.3.2.1,3.8,2.7,6.6,2.7s4-1.5,4-3.4-1.9-3.8-5.5-5.2c-4.1-1.7-8.2-4.3-8.2-9.4s2.9-8.4,9.8-8.4,7.8,2.3,8.7,2.9c.4.3.6,1,.3,1.4l-1.7,2.5c-.3.5-1,.9-1.5.5-.3-.2-3.7-2.4-6.1-2.4s-3.8,1.7-3.8,3.1c0,2,1.6,3.4,5.1,4.9,4.2,1.7,9.1,4.2,9.1,9.9s-3.9,8.6-10,8.6-8.7-2.6-9.6-3.4c-.4-.4-.6-.6-.2-1.3Z"/>
    <path class="cls-1" d="M272.1,45.4c0-.4.4-.8.8-.8h4.1c.4,0,.8.4.8.8v28.9c0,.4-.4.8-.8.8h-4.1c-.4,0-.8-.4-.8-.8v-28.9Z"/>
    <path class="cls-1" d="M286.6,70.8l1.6-2.7c.3-.6,1.1-.6,1.5-.3.2.1,3.8,2.7,6.6,2.7s4-1.5,4-3.4-1.9-3.8-5.5-5.2c-4.1-1.7-8.2-4.3-8.2-9.4s2.9-8.4,9.8-8.4,7.8,2.3,8.7,2.9c.4.3.6,1,.3,1.4l-1.7,2.5c-.3.5-1,.9-1.5.5-.3-.2-3.7-2.4-6.1-2.4s-3.8,1.7-3.8,3.1c0,2,1.6,3.4,5.1,4.9,4.2,1.7,9.1,4.2,9.1,9.9s-3.9,8.6-10,8.6-8.7-2.6-9.6-3.4c-.4-.4-.6-.6-.2-1.3Z"/>
    <path class="cls-2" d="M326.2,45.4c0-.4.3-.8.8-.8h1.7c.4,0,.8.4.8.8v26.8h12.6c.5,0,.8.4.8.8v1.3c0,.4-.3.8-.8.8h-15.1c-.5,0-.8-.4-.8-.8v-28.9Z"/>
    <path class="cls-2" d="M353.8,57.2c4.6,0,7.9,3.4,7.9,8s0,.9,0,1.2c0,.4-.4.7-.8.7h-12.6c.2,2.9,2.7,5.7,5.8,5.7s3.3-.7,4.3-1.3c.6-.3.9-.6,1.2,0,.3.3.5.7.7,1,.3.4.5.7-.2,1.1-1,.8-3.4,2-6.4,2-5.3,0-8.5-4.1-8.5-9.2s3.3-9.2,8.5-9.2ZM358.7,64.7c-.1-2.5-2.2-4.8-4.9-4.8s-5.2,2.1-5.5,4.8h10.4Z"/>
    <path class="cls-2" d="M366,47.5c0-1.2.9-2.1,2-2.1s2.1.9,2.1,2.1-.9,2-2.1,2-2-.9-2-2ZM366.7,58.5c0-.4.4-.8.8-.8h1.4c.4,0,.8.4.8.8v15.8c0,.4-.4.8-.8.8h-1.4c-.4,0-.8-.4-.8-.8v-15.8Z"/>
    <path class="cls-2" d="M377,45.4c0-.4.4-.8.8-.8h1.4c.4,0,.8.4.8.8v13s1.8-1.1,4.7-1.1c5.2,0,8.4,4,8.4,9.1s-3.5,9.2-7.9,9.2-5.4-2.3-5.4-2.3l-.3,1.2c0,.4-.3.7-.7.7h-.9c-.4,0-.8-.4-.8-.8v-28.9ZM384.8,72.8c3.2,0,5.2-3,5.2-6.4s-1.9-6.2-5.7-6.2-4.2,1-4.2,1v8.7s1.6,2.9,4.8,2.9Z"/>
    <path class="cls-2" d="M398.2,58.5c0-.4.4-.8.8-.8h.8c.4,0,.6.2.7.5l.4,1.4s2.5-2.3,6.1-2.3,6.8,3.3,6.8,7.8v9.2c0,.4-.4.8-.8.8h-1.4c-.4,0-.8-.4-.8-.8v-9.2c0-3.3-1.5-4.9-3.9-4.9s-5.6,2.5-5.6,2.5v11.6c0,.4-.4.8-.8.8h-1.4c-.4,0-.8-.4-.8-.8v-15.8Z"/>
    <path class="cls-2" d="M419.4,47.5c0-1.2.9-2.1,2-2.1s2.1.9,2.1,2.1-.9,2-2.1,2-2-.9-2-2ZM420,58.5c0-.4.4-.8.8-.8h1.4c.4,0,.8.4.8.8v15.8c0,.4-.4.8-.8.8h-1.4c-.4,0-.8-.4-.8-.8v-15.8Z"/>
    <path class="cls-2" d="M427.9,73.8l8.5-13.3h0c0-.1-7.3-.1-7.3-.1-.4,0-.8-.4-.8-.8v-1.1c0-.5.3-.8.8-.8h10.9c.7,0,1.1.6.7,1.2l-8.3,13.4h0c0,.1,6.7.1,6.7.1.5,0,.8.3.8.8v1.1c0,.4-.3.8-.8.8h-10.5c-.4,0-.8-.4-.8-.8v-.4Z"/>
    <path class="cls-2" d="M459.4,45.4c0-.4.4-.8.8-.8h1.7c.4,0,.8.4.8.8v28.9c0,.4-.4.8-.8.8h-1.7c-.4,0-.8-.4-.8-.8v-28.9Z"/>
    <path class="cls-2" d="M470.6,58.5c0-.4.4-.8.8-.8h.8c.4,0,.6.2.7.5l.4,1.4s2.5-2.3,6.1-2.3,6.8,3.3,6.8,7.8v9.2c0,.4-.4.8-.8.8h-1.4c-.4,0-.8-.4-.8-.8v-9.2c0-3.3-1.5-4.9-3.9-4.9s-5.6,2.5-5.6,2.5v11.6c0,.4-.4.8-.8.8h-1.4c-.4,0-.8-.4-.8-.8v-15.8Z"/>
    <path class="cls-2" d="M491.3,72.6c.2-.3.5-.9.6-1.1.2-.3.7-.4,1.2-.1,0,0,1.9,1.5,4.1,1.5s2.8-.9,2.8-2.1-1.3-2.2-3.8-3.5c-2.3-1.1-5-2.7-5-5.6s1.5-4.5,5.5-4.5,4,.8,4.8,1.4c.4.3.5.9.3,1.4l-.3.7c-.3.5-.9.6-1.3.4,0,0-1.9-1-3.5-1s-2.5,1-2.5,1.7c0,1.4,1.4,2.1,3.2,3,3,1.4,5.7,2.8,5.7,5.9s-2.4,4.9-6,4.9-4.7-1.2-5.7-2c-.2-.2-.3-.6-.2-.9Z"/>
    <path class="cls-2" d="M509.2,60.3h-2.2c-.5,0-.8-.4-.8-.8v-1c0-.5.3-.8.8-.8h2.2v-4.8c0-.4.4-.8.8-.8h1.4c.4,0,.8.3.8.7v4.9h5.1c.5,0,.8.3.8.8v1c0,.4-.3.8-.8.8h-5.1v10.2c0,1.7.4,2.1,1.4,2.1s2.6-.7,3.2-1c.7-.3.8,0,1,.3l.7,1.1c.3.5.2.8-.3,1.1-.6.4-3,1.5-5,1.5-3.5,0-4-2.1-4-4.8v-10.5Z"/>
    <path class="cls-2" d="M522.6,47.5c0-1.2.9-2.1,2-2.1s2.1.9,2.1,2.1-.9,2-2.1,2-2-.9-2-2ZM523.2,58.5c0-.4.4-.8.8-.8h1.4c.4,0,.8.4.8.8v15.8c0,.4-.4.8-.8.8h-1.4c-.4,0-.8-.4-.8-.8v-15.8Z"/>
    <path class="cls-2" d="M533.8,60.3h-2.2c-.5,0-.8-.4-.8-.8v-1c0-.5.3-.8.8-.8h2.2v-4.8c0-.4.4-.8.8-.8h1.4c.4,0,.8.3.8.7v4.9h5.1c.5,0,.8.3.8.8v1c0,.4-.3.8-.8.8h-5.1v10.2c0,1.7.4,2.1,1.4,2.1s2.6-.7,3.2-1c.7-.3.8,0,1,.3l.7,1.1c.3.5.2.8-.3,1.1-.6.4-3,1.5-5,1.5-3.5,0-4-2.1-4-4.8v-10.5Z"/>
    <path class="cls-2" d="M547.6,58.5c0-.4.4-.8.8-.8h1.4c.4,0,.8.4.8.8v9.2c0,3.3,1.5,4.9,3.9,4.9s5.2-2.5,5.2-2.5v-11.6c0-.4.4-.8.8-.8h1.4c.4,0,.8.4.8.8v15.8c0,.4-.4.8-.8.8h-.8c-.5,0-.7-.3-.8-.7l-.3-1.1s-2,2.3-5.7,2.3-6.8-3.3-6.8-7.9v-9.2Z"/>
    <path class="cls-2" d="M570.3,60.3h-2.2c-.5,0-.8-.4-.8-.8v-1c0-.5.3-.8.8-.8h2.2v-4.8c0-.4.4-.8.8-.8h1.4c.4,0,.8.3.8.7v4.9h5.1c.5,0,.8.3.8.8v1c0,.4-.3.8-.8.8h-5.1v10.2c0,1.7.4,2.1,1.4,2.1s2.6-.7,3.2-1c.7-.3.8,0,1,.3l.7,1.1c.3.5.2.8-.3,1.1-.6.4-3,1.5-5,1.5-3.5,0-4-2.1-4-4.8v-10.5Z"/>
    <path class="cls-2" d="M591.6,57.2c4.6,0,7.9,3.4,7.9,8s0,.9,0,1.2c0,.4-.4.7-.8.7h-12.6c.2,2.9,2.7,5.7,5.8,5.7s3.3-.7,4.3-1.3c.6-.3.9-.6,1.2,0,.3.3.5.7.7,1,.3.4.5.7-.2,1.1-1,.8-3.4,2-6.4,2-5.3,0-8.5-4.1-8.5-9.2s3.3-9.2,8.5-9.2ZM596.5,64.7c-.1-2.5-2.2-4.8-4.9-4.8s-5.2,2.1-5.5,4.8h10.4Z"/>
    <path class="cls-2" d="M184.5,109.8h-2.7c-.5,0-.8-.4-.8-.8v-1c0-.5.3-.8.8-.8h2.7v-6.1c0-5.1,2.9-7.4,6.7-7.4s4,1,4.8,1.8c.3.3.3.7.2,1l-.7,1.1c-.3.4-.7.4-1.1,0-.6-.4-1.9-1.3-3.2-1.3-2,0-3.6,1.4-3.6,4.7v6.1h5.1c.5,0,.8.3.8.8v1c0,.4-.3.8-.8.8h-5.1v14c0,.4-.4.8-.8.8h-1.4c-.4,0-.8-.4-.8-.8v-14Z"/>
    <path class="cls-2" d="M204.7,106.7c4.8,0,8.7,4.2,8.7,9.1s-3.8,9.2-8.7,9.2-8.7-4.2-8.7-9.2,3.8-9.1,8.7-9.1ZM204.7,122.2c3.2,0,5.7-2.8,5.7-6.4s-2.5-6.2-5.7-6.2-5.7,2.8-5.7,6.2,2.5,6.4,5.7,6.4Z"/>
    <path class="cls-2" d="M218.5,108c0-.4.4-.8.8-.8h.8c.3,0,.7.2.7.6l.3,1.3s1.6-2.3,5.2-2.3,3.5.2,3.1,1.4l-.5,1.5c-.2.6-.6.6-1,.4-.4-.2-1-.3-1.7-.3-3.3,0-4.8,2.4-4.8,2.4v11.6c0,.4-.4.8-.8.8h-1.4c-.4,0-.8-.4-.8-.8v-15.8Z"/>
    <path class="cls-2" d="M244.3,109.8h-2.2c-.5,0-.8-.4-.8-.8v-1c0-.5.3-.8.8-.8h2.2v-4.8c0-.4.4-.8.8-.8h1.4c.4,0,.8.3.8.7v4.9h5.1c.5,0,.8.3.8.8v1c0,.4-.3.8-.8.8h-5.1v10.2c0,1.7.4,2.1,1.4,2.1s2.6-.7,3.2-1c.7-.3.8,0,1,.3l.7,1.1c.3.5.2.8-.3,1.1-.6.4-3,1.5-5,1.5-3.5,0-4-2.1-4-4.8v-10.5Z"/>
    <path class="cls-2" d="M258.3,94.9c0-.4.4-.8.8-.8h1.4c.4,0,.8.4.8.8v14.1s2.3-2.3,5.8-2.3,6.8,2.7,6.8,7.8v9.2c0,.4-.4.8-.8.8h-1.4c-.4,0-.8-.4-.8-.8v-9.2c0-3.3-1.5-4.9-3.9-4.9s-5.6,2.4-5.6,2.4v11.7c0,.4-.4.8-.8.8h-1.4c-.4,0-.8-.4-.8-.8v-28.9Z"/>
    <path class="cls-2" d="M287.4,106.7c4.6,0,7.9,3.4,7.9,8s0,.9,0,1.2c0,.4-.4.7-.8.7h-12.6c.2,2.9,2.7,5.7,5.8,5.7s3.3-.7,4.3-1.3c.6-.3.9-.6,1.2,0,.3.3.5.7.7,1,.3.4.5.7-.2,1.1-1,.8-3.4,2-6.4,2-5.3,0-8.5-4.1-8.5-9.2s3.3-9.2,8.5-9.2ZM292.3,114.2c-.1-2.5-2.2-4.8-4.9-4.8s-5.2,2.1-5.5,4.8h10.4Z"/>
    <path class="cls-2" d="M308.7,120.1c.2-.3.4-.6.7-.8.4-.6.9-.9,1.5-.4.3.3,3.5,3.3,7.4,3.3s5.8-2.2,5.8-4.8-2.6-4.8-7.6-6.9c-4.8-2.1-7.7-4.1-7.7-9s2.4-7.8,9.3-7.8,7.5,2.2,7.5,2.2c.3.1.8.7.3,1.5-.2.3-.3.6-.5.8-.4.6-.8.8-1.5.4-.3-.2-3.1-2-5.7-2-4.6,0-6,3-6,4.8,0,2.9,2.2,4.6,5.9,6.1,5.9,2.4,9.7,4.6,9.7,9.7s-4.3,7.8-9.4,7.8-8.6-3-9.2-3.5c-.3-.3-.8-.7-.3-1.5Z"/>
    <path class="cls-2" d="M339.3,106.7c4.8,0,8.7,4.2,8.7,9.1s-3.8,9.2-8.7,9.2-8.7-4.2-8.7-9.2,3.8-9.1,8.7-9.1ZM339.3,122.2c3.2,0,5.7-2.8,5.7-6.4s-2.5-6.2-5.7-6.2-5.7,2.8-5.7,6.2,2.5,6.4,5.7,6.4Z"/>
    <path class="cls-2" d="M360.8,106.7c2.6,0,4.7,1,6.2,3.1.3.4.2.9-.2,1.2l-.8.7c-.7.6-.9.2-1.3-.2-.9-1-2.3-1.8-4-1.8-3.3,0-5.8,2.7-5.8,6.2s2.5,6.3,5.8,6.3,3.6-1.3,4.6-2.3c.5-.5.8-.4,1.3,0l.5.3c.4.3.6.8.3,1.2-1.3,2.1-3.7,3.7-6.7,3.7-4.8,0-8.9-3.9-8.9-9.1s4.2-9.2,9-9.2Z"/>
    <path class="cls-2" d="M372,97.1c0-1.2.9-2.1,2-2.1s2.1.9,2.1,2.1-.9,2-2.1,2-2-.9-2-2ZM372.6,108c0-.4.4-.8.8-.8h1.4c.4,0,.8.4.8.8v15.8c0,.4-.4.8-.8.8h-1.4c-.4,0-.8-.4-.8-.8v-15.8Z"/>
    <path class="cls-2" d="M387.7,113.6c1.9,0,3.7.6,3.7.6,0-3.2-.3-4.7-2.8-4.7s-4.4.7-5.2,1c-.4.2-.7,0-.8-.4l-.3-1.1c-.2-.5,0-.8.5-1,.3-.1,2.8-1.1,6.1-1.1s5.5,2.3,5.5,7.4v9.7c0,.4-.4.8-.8.8h-.8c-.5,0-.6-.3-.7-.7l-.3-1.2c-.9.9-2.7,2.3-5.4,2.3s-5.4-2.2-5.4-5.7,2.5-5.8,7-5.8ZM386.6,122.4c2.2,0,4.1-1.4,4.8-2.4v-3.4c-.5-.3-1.7-.7-3.7-.7s-4.2,1.2-4.2,3.5,1.2,3.1,3.1,3.1Z"/>
    <path class="cls-2" d="M400.6,94.9c0-.4.4-.8.8-.8h1.4c.4,0,.8.4.8.8v28.9c0,.4-.4.8-.8.8h-1.4c-.4,0-.8-.4-.8-.8v-28.9Z"/>
    <path class="cls-2" d="M419.3,120.1c.2-.3.4-.6.7-.8.4-.6.9-.9,1.5-.4.3.3,3.5,3.3,7.4,3.3s5.8-2.2,5.8-4.8-2.6-4.8-7.6-6.9c-4.8-2.1-7.7-4.1-7.7-9s2.4-7.8,9.3-7.8,7.5,2.2,7.5,2.2c.3.1.8.7.3,1.5-.2.3-.3.6-.5.8-.4.6-.8.8-1.5.4-.3-.2-3.1-2-5.7-2-4.6,0-6,3-6,4.8,0,2.9,2.2,4.6,5.9,6.1,5.9,2.4,9.7,4.6,9.7,9.7s-4.3,7.8-9.4,7.8-8.6-3-9.2-3.5c-.3-.3-.8-.7-.3-1.5Z"/>
    <path class="cls-2" d="M451.1,106.7c2.6,0,4.7,1,6.2,3.1.3.4.2.9-.2,1.2l-.8.7c-.7.6-.9.2-1.3-.2-.9-1-2.3-1.8-4-1.8-3.3,0-5.8,2.7-5.8,6.2s2.5,6.3,5.8,6.3,3.6-1.3,4.6-2.3c.5-.5.8-.4,1.3,0l.5.3c.4.3.6.8.3,1.2-1.3,2.1-3.7,3.7-6.7,3.7-4.8,0-8.9-3.9-8.9-9.1s4.2-9.2,9-9.2Z"/>
    <path class="cls-2" d="M462.2,97.1c0-1.2.9-2.1,2-2.1s2.1.9,2.1,2.1-.9,2-2.1,2-2-.9-2-2ZM462.8,108c0-.4.4-.8.8-.8h1.4c.4,0,.8.4.8.8v15.8c0,.4-.4.8-.8.8h-1.4c-.4,0-.8-.4-.8-.8v-15.8Z"/>
    <path class="cls-2" d="M479.5,106.7c4.6,0,7.9,3.4,7.9,8s0,.9,0,1.2c0,.4-.4.7-.8.7h-12.6c.2,2.9,2.7,5.7,5.8,5.7s3.3-.7,4.3-1.3c.6-.3.9-.6,1.2,0,.3.3.5.7.7,1,.3.4.5.7-.2,1.1-1,.8-3.4,2-6.4,2-5.3,0-8.5-4.1-8.5-9.2s3.3-9.2,8.5-9.2ZM484.4,114.2c-.1-2.5-2.2-4.8-4.9-4.8s-5.2,2.1-5.5,4.8h10.4Z"/>
    <path class="cls-2" d="M492.4,108c0-.4.4-.8.8-.8h.8c.4,0,.6.2.7.5l.4,1.4s2.5-2.3,6.1-2.3,6.8,3.3,6.8,7.8v9.2c0,.4-.4.8-.8.8h-1.4c-.4,0-.8-.4-.8-.8v-9.2c0-3.3-1.5-4.9-3.9-4.9s-5.6,2.5-5.6,2.5v11.6c0,.4-.4.8-.8.8h-1.4c-.4,0-.8-.4-.8-.8v-15.8Z"/>
    <path class="cls-2" d="M521.9,106.7c2.6,0,4.7,1,6.2,3.1.3.4.2.9-.2,1.2l-.8.7c-.7.6-.9.2-1.3-.2-.9-1-2.3-1.8-4-1.8-3.3,0-5.8,2.7-5.8,6.2s2.5,6.3,5.8,6.3,3.6-1.3,4.6-2.3c.5-.5.8-.4,1.3,0l.5.3c.4.3.6.8.3,1.2-1.3,2.1-3.7,3.7-6.7,3.7-4.8,0-8.9-3.9-8.9-9.1s4.2-9.2,9-9.2Z"/>
    <path class="cls-2" d="M540.9,106.7c4.6,0,7.9,3.4,7.9,8s0,.9,0,1.2c0,.4-.4.7-.8.7h-12.6c.2,2.9,2.7,5.7,5.8,5.7s3.3-.7,4.3-1.3c.6-.3.9-.6,1.2,0,.3.3.5.7.7,1,.3.4.5.7-.2,1.1-1,.8-3.4,2-6.4,2-5.3,0-8.5-4.1-8.5-9.2s3.3-9.2,8.5-9.2ZM545.8,114.2c-.1-2.5-2.2-4.8-4.9-4.8s-5.2,2.1-5.5,4.8h10.4Z"/>
    <path class="cls-2" d="M552.8,122.2c.2-.3.5-.9.6-1.1.2-.3.7-.4,1.2-.1,0,0,1.9,1.5,4.1,1.5s2.8-.9,2.8-2.1-1.3-2.2-3.8-3.5c-2.3-1.1-5-2.7-5-5.6s1.5-4.5,5.5-4.5,4,.8,4.8,1.4c.4.3.5.9.3,1.4l-.3.7c-.3.5-.9.6-1.3.4,0,0-1.9-1-3.5-1s-2.5,1-2.5,1.7c0,1.4,1.4,2.1,3.2,3,3,1.4,5.7,2.8,5.7,5.9s-2.4,4.9-6,4.9-4.7-1.2-5.7-2c-.2-.2-.3-.6-.2-.9Z"/>
  </g>
  <path class="cls-1" d="M154,77C154,34.5,119.6,0,77,0S0,34.5,0,77s34.5,77,77,77,.2,0,.3,0c1.2,0,2.3,0,3.4,0,.2,0,3.1-.2,4.3-.3,4-.4,7.9-2.2,10.5-5.3,2-2.4,3.2-5.3,3.2-8.6s-2.1-12-15.8-12-12.4,0-18.5.4c-18.7.2-34.8-6.2-34.3-24.8.5-16.2,14.9-24,14.9-24,0,0-6.5-7.8-6.5-20.4,0-19.6,14.7-36.8,36.2-36.8h36.8c2.2,0,4,1.8,4,4v5.3c0,1.5-.8,3.4-2.3,3.6l-11.6,3.2s9,6.7,9,22.5-13.9,34.3-35.8,34.3-16.6-3.4-18.3-3.4-8.6,3.6-8.6,10.3,3.8,8.6,10.1,8.6h28.6c18.3,0,33,9.9,33,28.2s0,1.6-.1,2.4c20.7-13.8,34.3-37.4,34.3-64.1Z"/>
</svg>