<svg xmlns="http://www.w3.org/2000/svg" width="209.293" height="49.4"><path d="M149.037 31.111h.598c.646 0 .727.146.727 1.228v3.941c0 .742-.08 1.017-.904 1.017h-.518v.792h4.521v-.792h-.225c-.824 0-.904-.273-.904-1.017v-2.649c0-1.519.807-2.356 1.986-2.356.871 0 1.42.517 1.42 1.662v3.345c0 .742-.08 1.017-.904 1.017h-.225v.792h4.424v-.792h-.42c-.824 0-.904-.273-.904-1.017v-3.813c0-1.745-1.227-2.455-2.809-2.455-1.311 0-2.23.549-2.779 1.857h-.033v-1.793c-.791.097-2.227.192-3.051.192v.841zm-1.275 3.198v-.372c0-2.713-1.082-3.924-3.684-3.924-2.713 0-3.875 1.776-3.875 4.167 0 2.392 1.162 4.166 3.875 4.166 2.697 0 3.506-1.389 3.521-2.777h-1.648c-.016 1.213-.5 1.843-1.678 1.843-1.988 0-2.004-2.003-2.004-3.103h5.493zm-5.492-.936c0-1.357.404-2.472 1.793-2.472s1.729 1.146 1.729 2.472h-3.522zm-6.153-.549c0 1.403-.404 2.083-1.277 2.083-.855 0-1.404-.613-1.404-2.067 0-1.405.484-1.938 1.389-1.938.775-.001 1.292.451 1.292 1.922m.678 6.62c0 .742-.5 1.52-2.033 1.52-1.357 0-1.891-.646-1.891-1.438 0-.855.484-1.565 1.938-1.565 1.404-.001 1.986.661 1.986 1.483m2.342-9.302l-2.391.21c-.451-.129-1.195-.339-1.873-.339-2.115 0-3.504 1.211-3.504 2.778 0 1.469.92 2.195 2.131 2.584v.032c-1.113.097-1.582.501-1.582 1.017 0 .549.371.824 1.453 1.034v.032c-1.131.111-2.471.711-2.471 2.019 0 1.309 1.115 2.342 3.666 2.342 2.713 0 4.199-.888 4.199-2.39 0-1.906-1.518-2.132-3.035-2.245-1.777-.129-2.068-.291-2.068-.743 0-.532.727-.613 1.26-.693l.389-.064c2.26-.372 2.971-1.583 2.971-2.875 0-.694-.307-1.324-.711-1.631v-.032h1.566v-1.036zm-19.073.969h.598c.646 0 .727.146.727 1.228v3.941c0 .742-.08 1.017-.904 1.017h-.518v.792h4.521v-.792h-.225c-.824 0-.904-.273-.904-1.017v-2.649c0-1.519.807-2.356 1.986-2.356.871 0 1.42.517 1.42 1.662v3.345c0 .742-.08 1.017-.904 1.017h-.225v.792h4.424v-.792h-.42c-.824 0-.904-.273-.904-1.017v-3.813c0-1.745-1.229-2.455-2.811-2.455-1.309 0-2.229.549-2.777 1.857h-.031v-1.793c-.793.097-2.229.192-3.053.192v.841zm-4.376-3.601c0 .694.42 1.211 1.178 1.211.76 0 1.18-.517 1.18-1.211s-.42-1.212-1.18-1.212c-.759.001-1.178.517-1.178 1.212m-1.1 3.601h.6c.645 0 .727.146.727 1.228v3.941c0 .742-.082 1.017-.906 1.017h-.516v.792h4.715v-.792h-.42c-.822 0-.904-.273-.904-1.017v-6.202c-1.033.097-2.471.192-3.295.192v.841zm-10.851 0h.597c.646 0 .728.146.728 1.228v3.941c0 .742-.081 1.017-.904 1.017h-.517v.792h4.522v-.792h-.227c-.824 0-.904-.273-.904-1.017v-2.649c0-1.519.807-2.356 1.986-2.356.873 0 1.422.517 1.422 1.662v3.345c0 .742-.082 1.017-.904 1.017h-.227v.792h4.426v-.792h-.42c-.824 0-.906-.273-.906-1.017v-3.813c0-1.745-1.227-2.455-2.809-2.455-1.309 0-2.23.549-2.779 1.857h-.031v-1.793c-.791.097-2.229.192-3.052.192v.841h-.001zm-8.834 3.069c0 2.392 1.162 4.166 3.876 4.166 2.713 0 3.876-1.774 3.876-4.166 0-2.391-1.163-4.167-3.876-4.167-2.714 0-3.876 1.777-3.876 4.167m2.067 0c0-2.196.483-3.229 1.809-3.229 1.324 0 1.808 1.032 1.808 3.229s-.483 3.23-1.808 3.23c-1.325.001-1.809-1.033-1.809-3.23m-10.065-3.069h.694c.646 0 .727.146.727 1.228v3.941c0 .742-.081 1.017-.904 1.017h-.517v.792h5.152v-.792h-.856c-.824 0-.905-.273-.905-1.017v-2.649c0-1.355.743-2.356 1.486-2.356.63 0 .808.451.824 1.26h1.55V30.21a3.995 3.995 0 00-1.292-.194c-1.308 0-2.228.549-2.778 1.857h-.031V30.08c-.791.097-2.229.192-3.149.192v.839zm-3.763 1.713c0 1.403-.404 2.083-1.276 2.083-.856 0-1.405-.613-1.405-2.067 0-1.405.485-1.938 1.39-1.938.774-.001 1.291.451 1.291 1.922m.678 6.62c0 .742-.5 1.52-2.035 1.52-1.355 0-1.889-.646-1.889-1.438 0-.855.483-1.565 1.938-1.565 1.405-.001 1.986.661 1.986 1.483m2.342-9.302l-2.39.21c-.452-.129-1.195-.339-1.874-.339-2.115 0-3.504 1.211-3.504 2.778 0 1.469.92 2.195 2.132 2.584v.032c-1.115.097-1.583.501-1.583 1.017 0 .549.371.824 1.453 1.034v.032c-1.13.111-2.472.711-2.472 2.019 0 1.309 1.115 2.342 3.667 2.342 2.714 0 4.199-.888 4.199-2.39 0-1.906-1.519-2.132-3.037-2.245-1.775-.129-2.066-.291-2.066-.743 0-.532.727-.613 1.26-.693l.387-.064c2.262-.372 2.973-1.583 2.973-2.875 0-.694-.308-1.324-.711-1.631v-.032h1.566v-1.036zm85.18-15.084h1.422v5.071c0 .743-.082 1.018-.906 1.018h-.516v.791h5.152v-.791h-.855c-.824 0-.904-.273-.904-1.018v-5.071h2.115v-.937h-2.115v-1.6c0-.969.387-1.438 1.049-1.438.598 0 .807.354.807 1.421h1.357v-2.131a10.76 10.76 0 00-2.148-.229c-2.938 0-3.035 1.777-3.035 3.975h-1.422v.939h-.001zm-8.737 2.973c0 2.39 1.162 4.164 3.875 4.164s3.877-1.774 3.877-4.164c0-2.392-1.164-4.169-3.877-4.169s-3.875 1.778-3.875 4.169m2.067 0c0-2.197.484-3.23 1.809-3.23s1.809 1.033 1.809 3.23c0 2.194-.484 3.229-1.809 3.229s-1.809-1.034-1.809-3.229m-9.981 3.714l-.775 1.971c-.211.565-.42.904-1.035.904h-.725v.791h4.328v-.791h-.533c-.631 0-.809-.146-.809-.485 0-.258.162-.629.26-.856l3.164-7.572c.227-.533.371-.791.711-.791h.355v-.792h-3.424v.792h.678c.275 0 .389.048.389.272 0 .146-.082.339-.178.566l-1.471 3.762-1.324-3.585c-.096-.258-.211-.483-.211-.727 0-.228.162-.29.438-.29h.598v-.792h-4.006v.792h.242c.389 0 .582.242.906 1.017l2.422 5.814zm-10.82-6.687h1.422v4.635c0 2.004.904 2.536 2.535 2.536 1.566 0 2.471-.773 2.471-2.504v-.354h-1.355v.822c0 .694-.26 1.001-.84 1.001-.582 0-.84-.307-.84-1.001v-5.136h2.584v-.937h-2.584v-2.277h-1.406c-.129 1.631-.484 2.1-1.986 2.277v.938h-.001zm-4.281-3.699c0 .694.422 1.211 1.18 1.211.76 0 1.18-.517 1.18-1.211 0-.693-.42-1.212-1.18-1.212-.758 0-1.18.519-1.18 1.212m-1.098 3.603h.598c.646 0 .727.146.727 1.228v3.94c0 .743-.08 1.018-.904 1.018h-.516v.791h4.715v-.791h-.42c-.824 0-.904-.273-.904-1.018v-6.201c-1.033.097-2.471.193-3.295.193v.84zm-7.736 6.718c.469.193 1.648.517 2.973.517 1.695 0 3.488-.727 3.488-2.615 0-1.229-.613-1.696-2.004-2.148l-1.322-.436c-.744-.242-1.164-.68-1.164-1.292 0-.646.469-.953 1.213-.953 1.162 0 1.469.517 1.469 1.761h1.357V14.3c-.471-.21-1.553-.438-2.779-.438-1.906 0-3.23.89-3.23 2.358 0 1.26.904 1.938 2.779 2.503 1.486.452 1.711.81 1.711 1.405 0 .743-.678 1.179-1.711 1.179-1.115 0-1.422-.743-1.422-1.889h-1.357v2.262zm-8.383-6.718h.695c.645 0 .725.146.725 1.228v3.94c0 .743-.08 1.018-.902 1.018h-.518v.791h5.152v-.791h-.857c-.822 0-.902-.273-.902-1.018v-2.648c0-1.355.742-2.356 1.484-2.356.629 0 .809.452.824 1.259h1.551V14.06a4.038 4.038 0 00-1.293-.193c-1.309 0-2.229.55-2.777 1.856h-.031v-1.792c-.793.097-2.23.193-3.15.193v.838zm-1.18 3.198v-.372c0-2.713-1.082-3.926-3.682-3.926-2.715 0-3.877 1.777-3.877 4.169 0 2.39 1.162 4.164 3.877 4.164 2.695 0 3.504-1.388 3.52-2.775h-1.646c-.018 1.211-.502 1.841-1.68 1.841-1.988 0-2.004-2.003-2.004-3.101h5.492zm-5.49-.938c0-1.354.404-2.471 1.793-2.471s1.729 1.146 1.729 2.471h-3.522zm-5.976-2.308h.678c.371 0 .469.097.469.21 0 .129-.033.29-.08.401l-1.68 4.799h-.033l-1.551-4.556c-.047-.162-.145-.354-.145-.564 0-.179.16-.29.646-.29h.533v-.792h-4.039v.792h.194c.354 0 .452.097.661.63l2.506 6.492h1.904l2.502-6.573c.162-.42.309-.549.646-.549h.211v-.792h-3.424v.792zm-8.981-3.555c0 .694.42 1.211 1.179 1.211.76 0 1.18-.517 1.18-1.211 0-.693-.42-1.212-1.18-1.212-.759 0-1.179.519-1.179 1.212m-1.099 3.603h.597c.646 0 .728.146.728 1.228v3.94c0 .743-.081 1.018-.904 1.018h-.518v.791h4.717v-.791h-.42c-.824 0-.905-.273-.905-1.018v-6.201c-1.033.097-2.471.193-3.294.193v.84zm-10.854 0h.599c.646 0 .726.146.726 1.228v3.94c0 .743-.08 1.018-.904 1.018h-.517v.791h4.522v-.791h-.227c-.823 0-.904-.273-.904-1.018v-2.648c0-1.519.808-2.356 1.986-2.356.872 0 1.421.517 1.421 1.663v3.343c0 .743-.08 1.018-.904 1.018h-.226v.791h4.425v-.791h-.42c-.824 0-.904-.273-.904-1.018v-3.813c0-1.742-1.228-2.454-2.81-2.454-1.309 0-2.229.55-2.778 1.856h-.031v-1.792c-.792.097-2.229.193-3.054.193v.84zm-3.907 6.975h3.052v-.791h-.42c-.823 0-.904-.273-.904-1.018v-6.201c-1.034.097-2.471.193-3.295.193v.84h.598c.646 0 .728.146.728 1.228V18.4c0 1.664-.599 2.536-1.972 2.536-.92 0-1.437-.469-1.437-1.422v-5.587c-1.034.097-2.471.193-3.295.193v.84h.598c.646 0 .728.146.728 1.228v3.779c0 1.502.969 2.228 2.567 2.228 1.631 0 2.648-.71 3.021-1.792h.032v1.534zm-17.971-7.931L38.239 49.398l2.279.002 28.679-35.396zM13.854 7.111c-.208.031-.502.114-.674-.258-.155-.337.428-.883.62-1.059.25-.229-.074-.475-.266-.207-.053.074-.51.72-.869.72-.556 0-.523-.651-.523-.651s-.621-.396-.621-1.653c0-1.118.738-1.653.738-1.653s.006-.637.504-.621c.496.018.818.701.851.748.251.378.567.058.347-.213-.521-.635-.631-1.136-.061-1.404.207-.473.832-.805 1.514-.856l.023-.001.021-.003c.683.056 1.308.388 1.515.859.569.269.46.77-.062 1.403-.22.271.096.591.348.213.031-.047.354-.73.852-.748.497-.016.503.621.503.621s.738.535.738 1.653c0 1.258-.621 1.653-.621 1.653s.032.651-.524.651c-.357 0-.814-.646-.869-.72-.189-.268-.516-.021-.266.207.193.176.777.722.621 1.059-.171.372-.465.289-.674.258 0 0-.191.332-.48.333 1.444 1.079 3.711.469 4.016-.321 0 0-.385.076-.381-.326.003-.244.251-.376.586-.425a1.167 1.167 0 01-.093-.54c.033-.566.423-1.041.873-1.063.449-.019.786.424.753.989a1.281 1.281 0 01-.284.74c.329.111.562.28.53.478-.08.521-.561.393-.561.393-.059 1.187 1.752 1.414 2.215 1.106-.184-.685.09-.891.299-1.075.149-.132.592-.403.653-.443.138-.09.21-.282.123-.354-.081-.065-.263.049-.349.146-.122.138-.337.464-.674.375-.407-.107-.23-.573-.3-.824-.434-1.583-.063-2.688 1.52-3.35 0 0 .603-.635 1.143-.35.517.274.196 1.119.196 1.119l.159.075c.578-1.049 1.414-1.811 2.613-1.84.85-.021 1.26.479 1.293 1.166.074 1.527-1.488.959-1.366.388 0 0-.378.039-.586.371 0-.096.013-1.003-.798-.523-.23.138-.639.822-.669.909-.101.301.045.349-.112.644-.123.229-.295.282-.368.442-.076.161.03.478-.071.681-.124.248-.295.268-.407.492-.089.179-1.22 3.062-1.22 3.062s.45.288.364.716c-.114.574-.479.45-.674.827-6.142-1.58-12.499-1.589-19.068-.027-.197-.344-.547-.239-.659-.8-.086-.427.365-.715.365-.715S4.469 6.702 4.379 6.523c-.111-.224-.282-.243-.406-.492-.102-.203.005-.521-.07-.681-.074-.16-.246-.214-.368-.442-.159-.294-.013-.343-.115-.643-.027-.087-.438-.772-.669-.91-.808-.478-.795.429-.796.525-.207-.332-.586-.371-.586-.371.122.571-1.44 1.14-1.367-.388.033-.688.443-1.188 1.293-1.166 1.2.029 2.035.791 2.613 1.84l.16-.075s-.321-.845.196-1.119c.539-.285 1.141.35 1.141.35 1.584.661 1.955 1.766 1.52 3.349-.068.251.107.717-.3.824-.335.088-.549-.239-.672-.376-.085-.097-.266-.211-.349-.145-.085.072-.016.264.124.354.061.04.503.312.651.443.209.186.483.392.301 1.075.462.308 2.271.079 2.215-1.106 0 0-.482.128-.563-.393-.028-.195.203-.365.531-.476a1.297 1.297 0 01-.283-.74c-.035-.567.302-1.008.753-.99.449.021.84.495.873 1.063.011.201-.023.386-.094.54.335.049.584.181.586.425.004.402-.38.326-.38.326.304.79 2.571 1.4 4.016.321-.291-.002-.48-.334-.48-.334m.521-2.955a1.063 1.063 0 102.125-.001 1.063 1.063 0 00-2.125.001m5.857 4.604c.457-.013 1.351.174 1.351.174s-.38-.425-.554-.714c0 0-.203.19-.326.279a6.808 6.808 0 01-.471.261m-4.795-.931c-.18.198-.525.54-.901.669 0 0 .619-.017.887-.021h.027c.268.005.888.021.888.021-.379-.129-.724-.471-.901-.669m-4.797.931s-.375-.19-.472-.261a4.405 4.405 0 01-.327-.28c-.174.29-.552.714-.552.714s.894-.186 1.351-.173m14.052 2.868c.294.079.708.369.594.794-.114.426-.617.47-.912.391-.295-.078-.708-.368-.594-.794.115-.426.617-.47.912-.391m-3.859-.116l-.895.752-.751-.896.895-.751.751.895zm-14.232 1.3c-.295.079-.798.035-.912-.391-.114-.425.3-.715.594-.794.295-.079.798-.035.912.391.114.425-.299.715-.594.794m7.954-1.584c0-.337.418-.609.933-.609s.933.272.933.609c0 .339-.418.612-.933.612-.515.002-.933-.273-.933-.612m-4.413.284l.751-.895.895.751-.751.896-.895-.752zM2.484 38.536c.102-.407.536-.316.536-.316s-.104-.375.278-.547c.425-.189.636.278.636.278l.178 1.205-1.285-.044s-.455-.126-.343-.576m1.821-1.995c.101-.406.534-.315.534-.315s-.103-.375.279-.547c.424-.189.634.277.634.277l.179 1.206-1.284-.043c-.001 0-.456-.127-.342-.578m1.819-1.995c.103-.406.535-.314.535-.314s-.103-.375.279-.548c.424-.188.635.278.635.278l.178 1.205-1.285-.043c-.002 0-.455-.127-.342-.578m9.323-18.472c.102-.407.535-.316.535-.316s-.104-.375.279-.547c.424-.19.634.278.634.278l.179 1.204-1.285-.043c.001 0-.456-.127-.342-.576m1.779 6.803c.102-.407.535-.316.535-.316s-.104-.375.278-.546c.424-.189.634.277.634.277l.18 1.205-1.285-.042c-.001 0-.456-.127-.342-.578m2.134-2.261c.102-.407.535-.315.535-.315s-.103-.376.279-.547c.425-.191.635.277.635.277l.178 1.205-1.284-.043c.001 0-.454-.127-.343-.577m2.137-2.263c.103-.404.535-.313.535-.313s-.103-.375.28-.547c.423-.191.634.275.634.275l.178 1.206-1.284-.043c-.002.001-.458-.126-.343-.578m2.134-2.259c.103-.406.535-.313.535-.313s-.103-.375.279-.548c.424-.19.635.277.635.277l.178 1.205-1.284-.043c.001 0-.454-.127-.343-.578M1.275 31.313c.102-.405.535-.314.535-.314s-.104-.376.278-.547c.425-.191.636.275.636.275l.178 1.206-1.285-.043c.001.001-.454-.126-.342-.577m4.959 12.103c.101-.406.535-.316.535-.316s-.104-.375.278-.547c.425-.189.636.278.636.278l.178 1.205-1.285-.043c.001.001-.454-.126-.342-.577m2.112-2.296c.102-.406.534-.315.534-.315s-.102-.375.28-.547c.423-.19.634.278.634.278l.179 1.205-1.284-.043c-.001 0-.457-.128-.343-.578m2.112-2.296c.103-.406.535-.315.535-.315s-.103-.375.279-.547c.424-.191.634.277.634.277l.179 1.205-1.285-.043c-.002 0-.455-.127-.342-.577m2.11-2.297c.102-.406.535-.315.535-.315s-.103-.375.278-.546c.425-.191.636.276.636.276l.178 1.206-1.285-.043c.001 0-.454-.127-.342-.578m9.3-9.762c.103-.406.535-.314.535-.314s-.104-.375.28-.546c.423-.191.634.275.634.275l.178 1.206-1.284-.043c-.002.001-.458-.126-.343-.578m1.903-2.077c.102-.405.535-.314.535-.314s-.104-.376.278-.547c.424-.191.636.275.636.275l.178 1.206-1.285-.043c0 .001-.454-.126-.342-.577m1.903-2.077c.103-.405.535-.314.535-.314s-.103-.375.279-.547c.424-.191.635.277.635.277l.178 1.205-1.284-.043c.001 0-.454-.127-.343-.578m1.906-2.076c.103-.406.535-.315.535-.315s-.103-.375.279-.547c.424-.19.635.278.635.278l.178 1.205-1.285-.044c-.002 0-.457-.127-.342-.577M12.8 45.454c.103-.406.535-.315.535-.315s-.103-.375.279-.547c.424-.19.635.278.635.278l.179 1.205-1.285-.043c.001 0-.455-.127-.343-.578m14.789-16.367c.103-.407.535-.316.535-.316s-.103-.375.279-.547c.424-.188.635.278.635.278l.178 1.205-1.284-.042c.001 0-.454-.127-.343-.578m-14.303 1.641c0-.063.102-.053.293-.085.192-.031.363-.096.363-.031 0 .097-.133.021-.133.177v1.5c0 .075.101.021.101.08 0 .074-.181.043-.314.043-.14 0-.315.031-.315-.027 0-.101.123 0 .123-.096v-1.425c-.002-.15-.118-.012-.118-.136m-1.629.651c0-.042.053-.047.149-.096.097-.048.154-.103.24-.026.085.075.55.608.55.608v-.759c0-.086-.149.026-.149-.059 0-.063.064-.063.17-.106.107-.043.262-.159.262-.086 0 .092-.111.063-.111.183V32.5c0 .123-.012.123-.064.123-.032 0-.771-.932-.771-.932v.992c0 .091.179-.034.179.051 0 .049-.107.074-.214.117-.107.042-.256.112-.256.06 0-.091.133-.06.133-.149v-1.286c-.002-.097-.118-.022-.118-.097m-.578.915c0-.619-.395-.389-.395-.389v1.271c0 .001.395-.006.395-.882m-.924-.256c0-.045.192-.116.32-.177.229-.106.972-.485.972.428 0 .838-.588.977-.774 1.062-.187.086-.439.209-.459.168-.032-.064.102-.076.102-.226v-1.041c-.001-.262-.161-.126-.161-.214m2.586-3.782c-.004-.039.151-.065.23-.087.134-.036.219-.063.274-.006s.33.499.33.499.354-.499.381-.532c.028-.034.039-.081.181-.084.161-.003.234-.021.234.014 0 .063-.101.031-.106.16-.004.101 0 1.294 0 1.361 0 .151.104.101.104.151s-.067.029-.305.027c-.196-.003-.328.025-.328-.012 0-.067.104-.012.104-.148v-.91s-.342.499-.358.499c-.021 0-.438-.637-.438-.637v1.09c0 .175.173.072.173.142 0 .033-.132.049-.229.072-.112.027-.21.069-.222.038-.024-.066.121-.029.121-.227 0-.174.002-1.174 0-1.247-.008-.192-.14-.108-.146-.163m-.493.189c.059-.026.211-.109.229-.085.026.037-.062.046-.122.31-.023.096-.311 1.606-.417 1.66-.034.018-.521-1.19-.566-1.286-.08-.171-.165-.057-.181-.117-.01-.039.123-.089.233-.139.06-.027.274-.157.298-.131.045.051-.118.053-.04.236.052.124.324.727.324.727s.16-.679.209-.907c.048-.229-.128-.115-.134-.165-.003-.029.085-.066.16-.099l.007-.004zm-1.871 1.587v.829s.428-.089.428-.605c.001-.444-.428-.224-.428-.224m-.004-.729v.55s.311-.114.311-.383c-.001-.32-.311-.167-.311-.167m.032-.142c.181-.069.656-.165.656.246 0 .294-.192.361-.192.361s.347.064.347.354c0 .331-.159.561-.341.656-.093.05-.662.324-.716.356-.053.032-.18.102-.194.07-.032-.072.094-.061.094-.273V29.6c0-.282-.134-.157-.134-.23-.001-.046.295-.139.48-.209m2.963-3.747v.672s.316-.021.316-.384c0-.433-.316-.288-.316-.288m.835 1.5c.096.012.139-.026.139-.026s-.031.24-.282.24c-.342 0-.336-.587-.433-.758-.096-.171-.257-.08-.257-.08v.598c0 .192.12.109.12.18 0 .028-.093.045-.093.045s-.261.074-.357.097c-.096.021-.138.043-.138 0 0-.076.095-.027.095-.237v-1.235c0-.239-.138-.159-.141-.228-.002-.04.096-.059.191-.083.161-.04.223-.09.451-.144.222-.053.609.054.609.361 0 .343-.193.411-.299.491.395.192.218.757.395.779m-2.594-.878c.16-.054.442-.174.747-.345.041-.022.165-.101.224.012.062.114.107.267.07.282-.055.022-.091-.021-.16-.06-.061-.032-.139-.068-.214-.048-.074.021-.176.066-.176.066l.001.525s.186 0 .208-.101c.017-.081.05-.188.108-.203.034-.009.024.099.028.25l.006.108c.004.187-.007.247-.034.252-.051.011-.094-.125-.105-.156-.022-.057-.211-.005-.211.024v.757s.144-.076.208-.114c.087-.052.233-.221.291-.32.056-.099.078-.18.13-.171.033.005-.037.331-.037.331s-.005.128-.112.181c-.105.055-.703.333-.755.358-.102.048-.225.136-.227.088-.003-.075.099-.035.099-.256l-.003-1.263s-.004-.105-.085-.12c-.064-.008-.121-.036-.001-.077m-1.397.58c.086-.03.329-.135.343-.105.033.076-.126.06-.073.211.045.128.326.796.326.796l.246-.961c.053-.208-.115-.136-.13-.187-.009-.035.123-.075.198-.107.062-.028.259-.113.271-.088.025.067-.075.067-.128.254-.064.222-.438 1.727-.542 1.782-.06.032-.574-1.266-.614-1.366s-.179-.063-.192-.123c-.005-.024.209-.078.295-.106m6.764 4.165c-.003-.04.058-.024.148.004.091.025.2.054.275.176.074.122.637 1.084.637 1.084l-.004-.868c0-.115-.102-.118-.102-.166 0-.044.077 0 .159.028.081.026.2.04.2.078 0 .036-.104-.019-.104.084v1.637s0 .071-.048.006c-.038-.052-.882-1.409-.882-1.409s.003.852 0 .939c-.003.101.109.091.109.142 0 .052-.119.024-.193.011-.074-.015-.187-.003-.187-.067s.102.034.102-.118v-1.393c0-.107-.107-.114-.11-.168m.795-2.508c0-.062.268.047.478.107.21.062.606.126.606.254 0 .158.041.31-.01.31-.031 0-.096-.199-.159-.266-.099-.098-.298-.142-.353-.151-.055-.011-.041-.008-.041.03v.509s.136.066.21.033c.075-.033.085-.151.129-.143.043.01.027.102.021.277-.007.177.014.336-.031.318-.043-.017-.047-.166-.138-.255-.092-.088-.193-.101-.193-.101v.829s.102.111.312.044.358-.21.393-.177c.034.034.018.081-.084.24-.102.16-.156.262-.258.217-.103-.044-.332-.132-.474-.194-.143-.065-.438-.138-.438-.197 0-.061.146.051.146-.125v-1.42c0-.068-.116-.09-.116-.139m-.342-.242c.074 0 .06.274.07.364.021.172.072.322.019.325-.081.004-.179-.269-.31-.403-.123-.127-.575-.357-.575.599 0 .817.355.801.55.74.189-.062.269-.211.291-.195.022.015-.157.404-.554.449-.396.044-.783-.345-.783-.953 0-.609.299-.982.676-.982.303 0 .392.209.521.209.086-.001.007-.153.095-.153m1.021-2.17c.015-.076.152.021.376.11.223.093.386.14.373.178-.014.036-.173-.023-.153.081.021.104.271.929.271.929s.291-.69.298-.719c.021-.085-.078-.099-.068-.14.012-.043.1.015.17.055.071.04.187.077.166.126-.02.047-.104-.062-.139.021-.034.081-.617 1.389-.617 1.389l-.583-1.88c-.033-.11-.105-.099-.094-.15m-1.332-.505c0-.045.082-.008.082-.008l.518.188s.092.03.089.071c-.003.04-.177-.052-.177.104v1.46s.037.098.21.027c.174-.071.431-.241.431-.241s.122-.062.092.023c-.031.085-.153.355-.153.355s-.026.104-.166.081c-.139-.024-.48-.129-.576-.156-.095-.026-.358-.106-.358-.106s-.054-.012-.054-.053c0-.04.166.004.166-.129V25.55c-.002-.129-.104-.132-.104-.194m2.007 5.159c0-.101.14.038.14-.122v-1.409c0-.177-.08-.17-.08-.239s.154.031.191.049c.037.015.443.224.486.245.042.021.475.197.475.672 0 .326-.271.272-.271.272s.271.159.287.399c.017.24.049.443.049.476 0 .031.048.172.197.043 0 0 .017.286-.31.182-.213-.069-.272-.268-.288-.4-.017-.134-.091-.776-.38-.768v.646c0 .172.102.123.102.226 0 .063-.149-.038-.282-.093-.198-.091-.316-.119-.316-.179m.498-1.434v.655c.043.017.368.225.368-.182s-.368-.473-.368-.473m-.715 2.458c.031-.104-.065-.131-.046-.174.014-.032.146.04.227.076.08.037.203.069.235.18l.491 1.671c.045.148.133.106.106.176-.011.027-.134-.032-.377-.128-.202-.08-.302-.105-.302-.138 0-.066.204.043.156-.097-.032-.094-.103-.339-.103-.339l-.563-.183-.08.271c-.04.137.088.113.063.164-.013.028-.093-.008-.196-.051-.101-.04-.144-.048-.14-.077.006-.048.085.021.122-.076.041-.096.377-1.188.407-1.275m.089.186l-.197.632.438.146-.241-.778zM30.276 14.05v18.732c.208 11.188-8.946 15.159-14.985 15.159-6.04 0-15.193-3.971-14.985-15.159V14.05h5.586c-.03-.346.063-.587.072-.598 7.632-1.528 11.322-1.602 18.947.004a.73.73 0 01.167.594h5.198zM3.099 41.202l5.85-6.23v-1.819l-.663-.023s-.456-.127-.343-.578c.102-.407.535-.315.535-.315s-.103-.375.279-.546a.493.493 0 01.191-.047l.001-1.207L1.64 38.22a12.763 12.763 0 001.459 2.982m7.279-15.92c.079-.036.159-.073.239-.113.282-.143.79-.408 1.337-.639.538-.229 1.174-.449 1.685-.449a2.535 2.535 0 011.537.518l.028.023a1.123 1.123 0 01.305-.281c.25-.158.633-.281 1.211-.281.605 0 1.285.242 1.834.49l.126.059 9.398-10.01H23.82l-8.278 8.815v-4.243l4.293-4.572H.854v18.188c-.013.68.011 1.331.066 1.957l4.096-4.362H8.95v-3.476c-.073.102-.185.083-.185.083s.099-.301-.175-.345a.468.468 0 00-.067-.005c-.155 0-.242.078-.335.152-.146.116-.575.62-.659.702-.084-.082-.515-.586-.661-.702-.092-.074-.18-.152-.334-.152a.46.46 0 00-.068.005c-.273.044-.174.345-.174.345s-.248.04-.248-.337c0-.267.212-.424.4-.474.284-.063.564-.085.618-.555.003-.095-.014-.113-.014-.113s-.102.155-.354.275c-.292.151-1.081.142-1.062.594-.006.181.192.164.192.164s-.01.082-.143.102a.44.44 0 01-.106.004c-.183-.025-.244-.22-.23-.464.011-.151-.092-.354-.289-.325a.455.455 0 00-.112.039c-.151.088-.098.231-.098.231s-.172-.096-.146-.295c.023-.171.136-.249.296-.315l.059-.011c.205-.031.377.03.377.03s-.052-.155-.032-.312c.017-.134.087-.268.287-.305.298-.056.361.145.316.254-.016.011-.068-.068-.153-.056a.158.158 0 00-.039.012.202.202 0 00-.095.095c-.05.118.049.269.065.292.06.08.244.137.473.093a.851.851 0 00.547-.385c.05-.079.07-.153.063-.204l.145-1.609s.047-.414-.235-.462a.245.245 0 00-.101-.002c-.237.037-.485.354-.407.752.06.305-.097.538-.246.571-.191.045-.308.008-.374-.133.333-.021.312-.289.207-.385-.045-.04-.11-.051-.186-.04-.311.049-.803.478-.882.733-.071.229.102.171.174.364.06.155-.072.279-.072.279a.925.925 0 01-.021.134c-.036.136-.105.181-.171.189a.259.259 0 01-.124-.015c.083-.035.108-.112.115-.176.005-.044.001-.079.001-.079s-.093.011-.174-.114c-.095-.146.021-.192-.081-.351-.105-.157-.396-.325-.622-.354a.153.153 0 00-.043.001c-.044.006-.086.028-.154.039a.323.323 0 01-.066.006c-.179.004-.13-.105-.276-.093-.076.016-.12.088-.096.191.005.017-.008.025-.008.025a.274.274 0 01-.121-.219c-.001-.231.147-.396.287-.408a.27.27 0 01.256.105c.092-.386-.211-.255-.356-.439-.099-.128-.06-.192-.046-.238.02-.069-.102-.078-.193-.063a.497.497 0 00-.067.017c-.018-.018.029-.197.22-.226a.487.487 0 01.253.036.199.199 0 01.227.086c.042.08.007.172.019.271.029.256.187.249.211.246-.14-.366.036-.476.054-.532.018-.058-.004-.135-.095-.167-.02-.007-.045-.022-.016-.03 0 0 .352-.016.405.214 0 0 .151.08.155.271.004.236-.124.258-.173.305.036.247.182.288.318.269.135-.021.259-.102.259-.102.23-.092.71-.388.581-.63-.06-.11-.156-.157-.264-.142a.365.365 0 00-.154.065c-.139.133-.069.308-.069.308-.211.056-.311-.312-.178-.467a.527.527 0 01.325-.174c.139-.023.287-.019.43-.048.169-.033.298-.139.423-.356a.58.58 0 00.015-.532c-.082-.185-.251-.414-.488-.457-.045.396-.264.71-.531.9a.541.541 0 01-.211.081c-.047.008-.077.004-.066-.011.349-.407.259-.836.249-.877-.025.047-.298.548-.785.763a.622.622 0 01-.146.041c-.263.041-.524-.081-.42-.095.173-.022.871-.429.66-1.289-.026.05-.334.598-.712.856a1.14 1.14 0 01-.478.188c-.298.048-.524-.035-.482-.074 0 0 .822-.39.832-.761a1.208 1.208 0 01-.508.233.754.754 0 01-.105.008c-.701 0-.701-.504-.701-.504.049.005.704.048 1.238-1.088 0 0-.349.123-.751.167-.237.026-.338-.123-.31-.121a.3.3 0 00.149.009c.132-.021.319-.104.559-.287-.066-.025-.924-.406-.592-.996 0 0 .237.207.529.233.215.019.589-.021.68-.237 0 0-.463-.026-.917-.313-.269-.167-.373-.564-.275-.449.101.118.203.152.357.191.12.03.202.002.202.002s-.667-.632-.245-1.121c0 0 .225.629.777.631 0 0-.279-.261-.336-.572-.039-.214-.022-.498.017-.417.026.057.087.157.126.229.068.124.216.29.334.393 0 0-.084-.329.031-.628.017-.046.171-.297.182-.234 0 0 .002.197.013.261.034.213.115.479.516.886.507.517 1.057.513 1.061.836-.02.385-.494.335-.805.308-.108 0-.095.165-.004.283.259.347 1.356.431 1.7-.132a.738.738 0 00.073-.652c-.104-.292-.34-.301-.788-.397-.317-.068-.231-.211-.185-.211 0 0 .097.055.19.055.235.002.093-.301.067-.297-.06.009-.313.11-.533.13-.277.023-.61-.087-.61-.28 0-.23.291-.297.277-.235-.003.016-.175.329.338.313.162-.005.489-.023.488-.038-.01-.086-.162-.209-.278-.209-.086 0-.165.022-.321.006-.057-.138.094-.276.196-.329.104-.052.178-.026.223-.044.06-.021.096-.21.438-.215.181-.003.441.122.563.122.12 0 .334-.078.355-.04.021.04-.086.163-.064.271-.01.251.424 1.242.882 1.337.457-.095.893-1.086.882-1.337.021-.108-.086-.231-.064-.271.021-.038.236.04.356.04s.381-.125.563-.122c.343.005.379.194.438.215.045.018.118-.008.221.044.104.053.253.191.197.329-.156.018-.236-.006-.322-.006-.115 0-.268.123-.276.209-.002.015.325.033.487.038.514.018.342-.297.338-.313-.014-.062.278.005.278.235 0 .193-.334.305-.611.28-.219-.02-.473-.121-.532-.13-.025-.004-.169.299.066.297.095 0 .191-.055.191-.055.047 0 .133.143-.185.211-.449.1-.686.108-.789.4a.744.744 0 00.072.652c.345.563 1.443.479 1.702.132.089-.118.104-.283-.005-.283-.31.027-.784.077-.805-.308.005-.323.555-.319 1.062-.836.399-.407.481-.673.516-.885.01-.063.013-.262.013-.262.01-.063.165.188.182.234.114.299.03.628.03.628.118-.102.266-.268.334-.392.04-.073.1-.175.126-.23.039-.081.055.203.017.417-.056.313-.336.572-.336.572.554-.002.777-.631.777-.631.422.489-.245 1.122-.245 1.122s.082.027.203-.002c.154-.039.256-.074.356-.192.099-.115-.007.282-.274.449-.454.286-.917.313-.917.313.09.216.465.256.679.237a1.06 1.06 0 00.53-.233c.331.59-.528.972-.591.999.238.185.427.268.558.287.061.01.108.005.15-.009.028-.002-.072.147-.312.121-.4-.044-.75-.167-.75-.167.535 1.136 1.189 1.093 1.239 1.088 0 0 0 .504-.701.504a.731.731 0 01-.105-.008 1.222 1.222 0 01-.509-.233c.011.371.832.762.832.762.043.038-.185.121-.481.073a1.122 1.122 0 01-.479-.188c-.379-.259-.686-.808-.713-.856-.21.86.488 1.267.661 1.289.104.014-.158.136-.42.095a.682.682 0 01-.145-.041c-.488-.215-.761-.716-.785-.763-.01.041-.102.47.248.877.012.016-.019.019-.065.011a.548.548 0 01-.211-.08 1.29 1.29 0 01-.533-.901c-.236.043-.404.272-.486.457a.583.583 0 00.014.532c.126.219.255.323.424.356.142.029.29.023.428.048a.507.507 0 01.327.175c.132.154.032.521-.179.466 0 0 .07-.174-.069-.308a.346.346 0 00-.154-.065c-.106-.017-.204.031-.264.142-.129.242.352.538.581.63 0 0 .124.079.259.102.137.021.283-.021.318-.269-.049-.047-.177-.067-.173-.305.004-.189.156-.271.156-.271.054-.229.403-.214.403-.214.031.009.005.023-.015.03-.09.032-.112.109-.094.167.017.058.192.166.054.532.023.003.181.01.21-.246.011-.099-.022-.19.02-.271.034-.066.128-.114.227-.086a.484.484 0 01.253-.036c.19.027.236.208.236.208s.003.021-.019.018a.386.386 0 00-.065-.016c-.092-.016-.213-.007-.193.063.013.046.052.11-.047.238-.145.186-.447.055-.356.439.013-.02.09-.122.257-.105.14.013.286.177.285.409a.266.266 0 01-.119.218s-.014-.01-.01-.025c.025-.104-.018-.177-.095-.191-.146-.014-.098.097-.277.093a.327.327 0 01-.065-.006c-.068-.011-.11-.033-.154-.039a.148.148 0 00-.042-.001c-.227.028-.517.196-.622.354-.104.157.014.203-.082.351-.081.125-.174.114-.174.114s-.004.035.001.079a.347.347 0 00.008.052m-.599.226c.142-.042.298-.098.459-.165a.353.353 0 01-.049-.113.64.64 0 01-.021-.134s-.132-.124-.072-.279c.072-.193.244-.136.174-.364-.08-.257-.572-.686-.883-.733-.075-.011-.14 0-.185.04-.104.096-.126.363.207.385-.068.141-.183.179-.374.133-.151-.033-.307-.268-.247-.571.079-.397-.169-.714-.408-.752a.275.275 0 00-.099.002c-.282.046-.236.46-.236.46l.146 1.609c-.008.051.014.125.062.204a.87.87 0 00.548.386c.229.041.411-.016.473-.096.016-.023.115-.174.064-.292a.213.213 0 00-.094-.095.164.164 0 00-.04-.012c-.084-.014-.138.065-.154.056-.044-.109.021-.31.317-.254.201.037.271.171.287.305.02.155-.033.313-.033.313s.065-.023.158-.033m-.829.574a.503.503 0 01.002-.128c-.218-.063-.457-.098-.591-.167a.914.914 0 01-.354-.275s-.015.021-.012.113c.053.47.334.49.617.555a.565.565 0 01.338.243v-.341zm10.142 9.057c-.044.092-.042.266.022.351.235.313 1.16.41 1.587.008-.552-.087-1.074-.231-1.609-.359m2.575-.866c.139.187.297.332.459.364.458-.093.894-1.086.882-1.337.021-.106-.085-.23-.063-.271.021-.037.236.04.355.04.12 0 .383-.125.563-.121.343.005.379.192.438.215.046.016.119-.009.222.044.104.051.254.19.198.329-.157.016-.236-.007-.322-.007-.116 0-.269.123-.278.21-.001.014.326.032.488.037.513.018.341-.297.337-.313-.012-.061.279.004.279.236 0 .192-.334.304-.611.279-.219-.02-.473-.121-.533-.131-.024-.004-.168.3.067.298.094 0 .19-.056.19-.056.048 0 .134.144-.185.211-.448.099-.684.107-.789.399a.742.742 0 00.073.651c.344.563 1.442.479 1.702.133.089-.118.104-.283-.006-.283-.31.026-.783.076-.805-.31.005-.322.555-.317 1.063-.836.399-.406.48-.673.515-.885.01-.063.013-.26.013-.26.011-.063.165.188.183.233.113.299.029.628.029.628.118-.102.267-.269.335-.393.039-.073.1-.174.125-.229.039-.082.057.202.018.416-.056.313-.336.572-.336.572.553-.003.777-.632.777-.632.422.49-.245 1.122-.245 1.122s.083.029.202-.001c.154-.04.258-.075.357-.192.098-.115-.007.281-.275.448-.453.286-.917.313-.917.313.091.215.466.256.68.236.292-.025.529-.232.529-.232.332.589-.527.97-.591.999.238.183.427.266.56.286.059.01.106.006.148-.009.028-.002-.072.147-.311.121-.401-.044-.75-.167-.75-.167.535 1.136 1.188 1.093 1.238 1.088 0 0 0 .504-.7.504a.745.745 0 01-.106-.008c-.259-.04-.481-.213-.509-.232.011.37.832.76.832.76.043.039-.185.122-.481.075a1.153 1.153 0 01-.478-.189c-.378-.259-.686-.807-.712-.854-.21.859.486 1.265.661 1.289.104.013-.158.135-.42.094a.555.555 0 01-.146-.041c-.488-.214-.76-.715-.785-.763-.01.041-.1.47.249.879.011.013-.019.016-.065.009a.53.53 0 01-.211-.081 1.282 1.282 0 01-.533-.9c-.237.043-.405.272-.487.456a.58.58 0 00.015.532c.125.22.255.324.424.359.141.027.29.021.428.047a.511.511 0 01.327.173c.132.156.032.521-.18.466 0 0 .07-.174-.068-.306a.35.35 0 00-.154-.067c-.107-.016-.204.031-.264.144-.129.241.351.537.581.63 0 0 .125.079.259.1.137.021.283-.02.319-.267-.051-.048-.179-.069-.174-.306.003-.188.155-.271.155-.271.054-.229.405-.214.405-.214.03.008.004.023-.017.03-.09.031-.111.108-.094.167.019.058.193.166.054.531.024.004.182.011.211-.245.012-.1-.023-.19.019-.271a.195.195 0 01.227-.086.495.495 0 01.253-.036c.19.028.237.208.237.208s.002.022-.018.019a.27.27 0 00-.067-.018c-.092-.014-.213-.006-.192.063.013.047.052.109-.048.237-.145.188-.446.056-.355.441.013-.021.089-.123.256-.107.14.014.288.178.286.41a.265.265 0 01-.12.217s-.012-.01-.009-.022c.025-.106-.019-.179-.096-.194-.146-.012-.097.098-.276.093a.443.443 0 01-.066-.005c-.066-.011-.108-.033-.153-.04a.147.147 0 00-.042-.001c-.228.029-.518.197-.622.355-.104.157.013.202-.082.349-.08.125-.175.116-.175.116s-.004.035.001.079c.009.062.033.14.113.156 0 0 .025.013.003.019a.287.287 0 01-.125.014c-.063-.01-.135-.054-.17-.188a.667.667 0 01-.02-.135s-.132-.124-.073-.279c.073-.194.245-.136.174-.365-.079-.256-.572-.684-.883-.732-.075-.012-.139 0-.184.041-.105.096-.127.361.206.385-.066.139-.183.177-.373.133-.15-.035-.308-.269-.247-.572.078-.396-.169-.715-.407-.753a.285.285 0 00-.101.002c-.281.048-.235.462-.235.462l.145 1.61c-.008.05.015.125.063.205a.862.862 0 00.548.384c.229.043.413-.012.473-.092.017-.025.115-.174.065-.292a.21.21 0 00-.094-.096c-.015-.006-.027-.011-.039-.013-.085-.012-.139.066-.155.057-.044-.109.02-.311.318-.253.199.037.27.17.286.305.02.154-.033.311-.033.311s.173-.061.378-.029l.058.013c.16.064.273.143.296.313.026.198-.145.295-.145.295s.053-.144-.099-.23a.366.366 0 00-.112-.039c-.198-.03-.3.172-.288.325.013.244-.048.437-.231.463a.494.494 0 01-.105-.003c-.134-.021-.144-.103-.144-.103s.198.019.192-.164c.02-.451-.771-.441-1.063-.595a.908.908 0 01-.353-.274s-.017.02-.014.112c.054.471.335.49.617.557.188.05.401.206.401.473 0 .377-.248.336-.248.336s.099-.3-.174-.343a.472.472 0 00-.068-.005c-.154 0-.242.077-.335.15-.145.116-.575.62-.659.702-.084-.082-.515-.586-.66-.702-.093-.073-.181-.15-.335-.15a.457.457 0 00-.067.005c-.273.043-.174.343-.174.343s-.248.041-.248-.336c0-.267.213-.423.4-.473.283-.065.564-.086.617-.557.003-.094-.013-.112-.013-.112s-.103.154-.354.274c-.292.152-1.082.144-1.062.595-.006.183.191.164.191.164s-.01.081-.143.103a.506.506 0 01-.106.003c-.183-.026-.243-.219-.23-.463.011-.153-.09-.355-.288-.325a.39.39 0 00-.113.039c-.15.088-.098.23-.098.23s-.171-.097-.146-.295c.023-.172.137-.249.297-.313l.058-.013c.206-.03.378.029.378.029s-.052-.151-.032-.305c.018-.134.087-.268.288-.305.297-.058.361.144.317.254-.018.01-.07-.068-.155-.058a.197.197 0 00-.133.109c-.05.118.049.267.064.292.061.08.244.135.474.092a.858.858 0 00.548-.384c.048-.08.07-.155.062-.205l.146-1.61s.046-.414-.236-.462a.274.274 0 00-.099-.002c-.239.038-.487.355-.408.753.06.305-.096.537-.247.572-.19.044-.307.006-.374-.133.333-.022.313-.289.207-.385-.045-.041-.108-.053-.184-.041-.312.05-.805.478-.883.732-.071.23.101.171.174.365.059.156-.073.28-.073.28a.598.598 0 01-.021.134c-.034.135-.105.179-.17.188a.263.263 0 01-.125-.014c.083-.035.108-.113.116-.175.005-.044.001-.079.001-.079s-.094.009-.174-.116c-.095-.146.022-.19-.082-.349s-.395-.326-.622-.355a.146.146 0 00-.042.001c-.045.007-.087.029-.154.04a.44.44 0 01-.065.005c-.18.005-.131-.104-.277-.093-.077.017-.121.088-.095.194.003.014-.009.022-.009.022a.265.265 0 01-.12-.217c-.002-.232.146-.396.286-.41.167-.016.244.088.256.107.091-.387-.211-.255-.356-.441-.099-.128-.06-.19-.047-.237.021-.069-.101-.077-.192-.063a.23.23 0 00-.066.018c-.02-.019.028-.197.218-.227a.493.493 0 01.253.036c.1-.029.192.019.228.086.042.08.007.172.019.271.029.256.187.249.21.245-.139-.365.036-.475.054-.531.019-.059-.004-.136-.094-.167-.02-.007-.046-.022-.016-.03 0 0 .351-.016.405.214 0 0 .151.081.154.271.005.235-.123.259-.173.306.036.247.182.288.319.267.134-.021.259-.1.259-.1.23-.092.71-.389.581-.63-.061-.111-.157-.158-.264-.144a.365.365 0 00-.154.067c-.139.132-.069.306-.069.306-.212.057-.311-.31-.179-.466a.523.523 0 01.327-.173c.138-.024.287-.02.428-.047.169-.035.298-.141.423-.359a.583.583 0 00.016-.532c-.082-.184-.25-.413-.487-.456-.046.396-.265.71-.533.9a.535.535 0 01-.211.081c-.047.007-.077.004-.066-.009.351-.409.26-.837.249-.878-.024.047-.297.548-.784.762a.56.56 0 01-.146.041c-.261.041-.522-.081-.42-.094.174-.024.871-.43.661-1.289-.027.049-.333.597-.712.854a1.141 1.141 0 01-.479.189c-.297.047-.523-.036-.48-.075 0 0 .82-.389.832-.76-.027.021-.25.192-.509.232a.745.745 0 01-.106.008c-.701 0-.701-.504-.701-.504.05.005.704.049 1.239-1.088 0 0-.35.123-.75.167-.239.026-.339-.123-.312-.121a.3.3 0 00.149.01c.132-.021.321-.104.559-.287-.063-.029-.923-.41-.591-.999 0 0 .238.207.53.232.214.02.589-.021.679-.236 0 0-.463-.027-.917-.313l-.041-.027a6.51 6.51 0 00-.643.032c-.147.575-.624.997-1.189.997-.563 0-1.038-.418-1.187-.988a4.226 4.226 0 00-1.065-.046l-8.05 8.572a13.662 13.662 0 002.514 1.857l7.527-8.016v4.242l-4.727 5.034c1.719.581 3.451.844 4.986.844 5.87 0 14.638-3.846 14.438-14.605V25.86l-3.762 4.007h-3.984l7.746-8.25v-4.535l-8.121 8.648c.037.03.059.065.059.104l-.003 8.439zm-.875 2.596h2.672v-1.074h-2.673l.001 1.074zm1.335 2.096c1.201 0 1.307-1.135 1.307-1.135h-2.621s.112 1.135 1.314 1.135m-15.935-18.7h2.672v-1.073H6.191l.001 1.073zm1.336 2.096c1.201 0 1.306-1.136 1.306-1.136H6.212c0 .001.115 1.136 1.316 1.136m7.208 12.354a.576.576 0 101.151-.001.576.576 0 00-1.151.001m-5.421-8.659v8.813s.096.117.685-.043c.679-.187 1.52-1.05 2.697-1.308.884-.19 2.076.087 2.354.279v-8.829s-.533-.522-1.411-.522c-.857 0-2.303.77-2.858 1.049-.484.24-.993.424-1.364.46-.112.011-.103.101-.103.101m7.727 7.444c1.531 0 2.328.949 2.848 1.156 1.209.479 1.411.233 1.411.233v-8.858c0-.087-.128-.087-.128-.087s-1.179-.182-1.584-.429c-.385-.233-1.818-1.092-2.867-1.092-1.053 0-1.241.45-1.241.45v8.945c-.002.002.491-.318 1.561-.318" fill="#C00"/></svg>